<?xml version="1.0" encoding="UTF-8"?>
<!DOCTYPE svg PUBLIC "-//W3C//DTD SVG 1.1//EN" "http://www.w3.org/Graphics/SVG/1.1/DTD/svg11.dtd">
<!-- Creator: CorelDRAW 2021 (64-Bit) -->
<svg xmlns="http://www.w3.org/2000/svg" xml:space="preserve" width="2489px" height="1488px" version="1.1" style="shape-rendering:geometricPrecision; text-rendering:geometricPrecision; image-rendering:optimizeQuality; fill-rule:evenodd; clip-rule:evenodd"
viewBox="0 0 2175.09 1300.69"
 xmlns:xlink="http://www.w3.org/1999/xlink"
 xmlns:xodm="http://www.corel.com/coreldraw/odm/2003">
 <defs>
  <style type="text/css">
   <![CDATA[
    .fil1 {fill:#FF9900;fill-rule:nonzero}
    .fil0 {fill:white;fill-rule:nonzero}
   ]]>
  </style>
 </defs>
 <g id="Capa_x0020_1">
  <metadata id="CorelCorpID_0Corel-Layer"/>
  <path class="fil0" d="M612.96 472.39c0,26.76 2.89,48.47 7.96,64.38 5.79,15.92 13.02,33.28 23.15,52.09 3.62,5.78 5.06,11.57 5.06,16.64 0,7.23 -4.34,14.46 -13.74,21.7l-45.58 30.38c-6.51,4.34 -13.02,6.51 -18.81,6.51 -7.23,0 -14.46,-3.61 -21.7,-10.13 -10.13,-10.85 -18.81,-22.42 -26.04,-34 -7.24,-12.29 -14.47,-26.04 -22.43,-42.68 -56.42,66.56 -127.32,99.83 -212.68,99.83 -60.77,0 -109.24,-17.36 -144.68,-52.08 -35.45,-34.73 -53.54,-81.02 -53.54,-138.9 0,-61.49 21.71,-111.4 65.84,-149.02 44.12,-37.62 102.72,-56.43 177.23,-56.43 24.6,0 49.92,2.17 76.68,5.79 26.77,3.62 54.26,9.41 83.2,15.92l0 -52.81c0,-54.98 -11.58,-93.32 -34,-115.75 -23.15,-22.42 -62.22,-33.28 -117.92,-33.28 -25.32,0 -51.36,2.9 -78.13,9.41 -26.77,6.51 -52.81,14.47 -78.13,24.6 -11.57,5.06 -20.25,7.95 -25.32,9.4 -5.06,1.45 -8.68,2.17 -11.57,2.17 -10.13,0 -15.19,-7.23 -15.19,-22.43l0 -35.44c0,-11.58 1.44,-20.26 5.06,-25.32 3.62,-5.07 10.13,-10.13 20.26,-15.19 25.31,-13.03 55.7,-23.88 91.15,-32.56 35.44,-9.4 73.06,-13.74 112.85,-13.74 86.08,0 149.02,19.53 189.53,58.59 39.79,39.07 60.04,98.39 60.04,177.96l0 234.39 1.45 0zm-293.7 109.96c23.87,0 48.46,-4.34 74.51,-13.03 26.04,-8.68 49.19,-24.59 68.72,-46.29 11.58,-13.75 20.26,-28.94 24.6,-46.3 4.34,-17.36 7.23,-38.34 7.23,-62.94l0 -30.38c-20.98,-5.07 -43.4,-9.41 -66.55,-12.3 -23.15,-2.89 -45.58,-4.34 -68,-4.34 -48.47,0 -83.92,9.4 -107.79,28.94 -23.87,19.53 -35.45,47.02 -35.45,83.19 0,34 8.68,59.32 26.77,76.68 17.36,18.09 42.68,26.77 75.96,26.77zm580.9 78.13c-13.03,0 -21.71,-2.18 -27.49,-7.24 -5.79,-4.34 -10.85,-14.47 -15.2,-28.21l-170 -559.2c-4.34,-14.47 -6.51,-23.87 -6.51,-28.94 0,-11.57 5.79,-18.08 17.36,-18.08l70.9 0c13.74,0 23.15,2.17 28.21,7.23 5.79,4.34 10.13,14.47 14.47,28.22l121.53 478.89 112.86 -478.89c3.61,-14.47 7.95,-23.88 13.74,-28.22 5.79,-4.34 15.91,-7.23 28.94,-7.23l57.87 0c13.74,0 23.15,2.17 28.94,7.23 5.78,4.34 10.85,14.47 13.74,28.22l114.3 484.68 125.15 -484.68c4.34,-14.47 9.4,-23.88 14.47,-28.22 5.79,-4.34 15.19,-7.23 28.21,-7.23l67.28 0c11.57,0 18.08,5.79 18.08,18.08 0,3.62 -0.72,7.24 -1.44,11.58 -0.73,4.34 -2.17,10.13 -5.07,18.08l-174.34 559.2c-4.34,14.47 -9.4,23.87 -15.19,28.21 -5.79,4.34 -15.19,7.24 -27.49,7.24l-62.21 0c-13.75,0 -23.15,-2.17 -28.94,-7.24 -5.79,-5.06 -10.85,-14.46 -13.75,-28.93l-112.12 -466.6 -111.41 465.87c-3.62,14.47 -7.96,23.88 -13.74,28.94 -5.79,5.06 -15.92,7.24 -28.94,7.24l-62.21 0zm929.58 19.53c-37.62,0 -75.24,-4.34 -111.41,-13.02 -36.17,-8.69 -64.38,-18.09 -83.19,-28.94 -11.57,-6.51 -19.53,-13.75 -22.42,-20.26 -2.9,-6.51 -4.34,-13.74 -4.34,-20.25l0 -36.9c0,-15.19 5.78,-22.42 16.63,-22.42 4.34,0 8.69,0.72 13.03,2.17 4.34,1.45 10.85,4.34 18.08,7.23 24.6,10.85 51.36,19.54 79.58,25.32 28.93,5.79 57.15,8.68 86.08,8.68 45.58,0 81.02,-7.95 105.62,-23.87 24.6,-15.91 37.62,-39.06 37.62,-68.72 0,-20.26 -6.51,-36.9 -19.54,-50.64 -13.02,-13.75 -37.61,-26.04 -73.06,-37.62l-104.89 -32.55c-52.81,-16.64 -91.88,-41.24 -115.75,-73.79 -23.87,-31.83 -36.17,-67.28 -36.17,-104.9 0,-30.38 6.51,-57.15 19.53,-80.29 13.02,-23.15 30.39,-43.41 52.09,-59.32 21.7,-16.64 46.3,-28.94 75.23,-37.62 28.94,-8.68 59.32,-12.3 91.15,-12.3 15.92,0 32.56,0.72 48.47,2.89 16.64,2.17 31.83,5.07 47.02,7.96 14.47,3.62 28.22,7.24 41.24,11.58 13.02,4.34 23.15,8.68 30.38,13.02 10.13,5.79 17.36,11.57 21.7,18.08 4.34,5.79 6.51,13.75 6.51,23.88l0 34c0,15.19 -5.78,23.15 -16.64,23.15 -5.78,0 -15.19,-2.9 -27.48,-8.69 -41.24,-18.8 -87.54,-28.21 -138.9,-28.21 -41.23,0 -73.79,6.51 -96.21,20.26 -22.43,13.74 -34,34.72 -34,64.38 0,20.26 7.23,37.62 21.7,51.36 14.47,13.75 41.23,27.49 79.57,39.79l102.73 32.55c52.08,16.64 89.7,39.79 112.13,69.45 22.42,29.66 33.27,63.66 33.27,101.28 0,31.1 -6.51,59.32 -18.8,83.91 -13.03,24.6 -30.39,46.3 -52.81,63.66 -22.43,18.09 -49.2,31.11 -80.3,40.52 -32.56,10.12 -66.56,15.19 -103.45,15.19z"/>
  <path class="fil1" d="M1966.46 1031.59c-238,175.78 -583.79,269.1 -881.11,269.1 -416.69,0 -792.14,-154.08 -1075.71,-410.17 -22.43,-20.26 -2.17,-47.75 24.59,-31.83 306.73,177.96 685.07,285.75 1076.44,285.75 264.04,0 554.13,-54.98 821.07,-167.83 39.79,-18.09 73.79,26.04 34.72,54.98zm99.11 -112.86c-30.38,-39.06 -201.11,-18.81 -278.51,-9.4 -23.15,2.89 -26.77,-17.36 -5.79,-32.55 136,-95.5 359.54,-68.01 385.58,-36.18 26.04,32.56 -7.23,256.09 -134.56,363.16 -19.53,16.64 -38.34,7.95 -29.66,-13.75 28.94,-71.62 93.32,-232.94 62.94,-271.28z"/>
 </g>
</svg>
